<?xml version="1.0" encoding="utf-8"?>
<!-- Generator: Adobe Illustrator 19.1.0, SVG Export Plug-In . SVG Version: 6.00 Build 0)  -->
<!DOCTYPE svg PUBLIC "-//W3C//DTD SVG 1.1//EN" "http://www.w3.org/Graphics/SVG/1.1/DTD/svg11.dtd">
<svg version="1.1" xmlns="http://www.w3.org/2000/svg" xmlns:xlink="http://www.w3.org/1999/xlink" x="0px" y="0px"
	 viewBox="0 0 24 24" style="enable-background:new 0 0 24 24;" xml:space="preserve">
<style type="text/css">
	.st0{fill:#337FB1;}
</style>
<g id="Layer_2">
</g>
<g id="Layer_1">
	<path class="st0" d="M18,19.1c1.3-0.2,2.6-0.3,3.9-0.5c0.1,0,0.2-0.1,0.3-0.2c0.2-0.3,0.4-0.6,0.6-0.9c0.1-0.1,0.1-0.2,0.1-0.4
		c-0.1-1.2-0.2-2.4-0.3-3.5c-0.1-0.6-0.1-1.3-0.2-1.9c-0.3-1.7-0.5-3.4-0.8-5.1c-0.1-0.7-0.2-1.4-0.4-2.1c-0.1,0.1-0.2,0.1-0.2,0.2
		c-0.8,1-1.5,2-2.3,2.9c-0.5,0.6-0.9,1.2-1.4,1.7c-0.5,0.5-1.1,1-1.6,1.5c0,0-0.1,0.1-0.1,0.2c1,0.9,1.9,2,2.9,2.8
		c1.1,0.9,2.2,1.6,3.3,2.5c-0.1,0.2-0.2,0.3-0.4,0.5c-0.8-0.4-1.5-0.9-2.3-1.3c-0.1-0.1-0.2-0.1-0.3-0.2c-1-1-2.1-2-3.1-3
		c-0.3-0.3-0.5-0.5-0.8-0.8c-0.8,0.9-1.5,1.9-2.2,2.8c-1.1-0.6-2.2-1.2-3.2-1.7c-0.1,0.2-0.2,0.4-0.3,0.6c-0.3,0.6-0.5,1.3-1,1.8
		c-0.7,0.9-1.3,1.7-1.9,2.6c-0.5,0.6-0.9,1.2-1.4,1.9c-0.2-0.2-0.5-0.3-0.7-0.5c0.7-0.9,1.3-1.8,2-2.8c0.6-0.9,1.4-1.8,1.9-2.8
		c0.3-0.5,0.6-1.1,0.9-1.6c-0.6-0.3-1.2-0.5-1.7-0.8c-0.6-0.3-1.2-0.5-1.8-0.9C4.7,9.7,4,9.2,3.3,8.7C2.8,8.3,2.2,7.9,1.6,7.5
		c-0.1,0.1,0,0.2,0,0.2c0.1,1.1,0.2,2.3,0.3,3.4C1.9,12.1,2,13,2.2,13.9c0.3,1.6,0.5,3.2,0.8,4.8c0.1,0.6,0.2,1.1,0.3,1.7
		c0.9,0.1,1.7,0.1,2.6,0.1c1.3,0.1,2.6,0.1,3.8,0.2c0.2,0,0.4,0,0.6,0c1.7-0.4,3.4-0.7,5.1-1.1C16.3,19.5,17.1,19.2,18,19.1z"/>
	<path class="st0" d="M1.7,6.6C2.8,7.4,4,8.1,5.1,8.8c0.5,0.3,1,0.7,1.5,0.9c0.9,0.4,1.8,0.8,2.6,1.2c0.2,0.1,0.3,0.2,0.5,0.3
		c0.8,0.5,1.6,1.1,2.3,1.6c0.1,0.1,0.2,0.2,0.3,0.2c0.1-0.1,0.1-0.2,0.2-0.2c1-1.3,2.2-2.5,3.4-3.6c0.4-0.4,0.8-0.7,1.2-1.2
		c1.2-1.4,2.5-2.9,3.7-4.3C20.9,3.5,21,3.5,21,3.3c-0.3,0-0.6,0.1-0.9,0.1c-1.2,0.2-2.4,0.3-3.7,0.5c-1,0.1-2,0.3-3,0.4
		c-1,0.1-2.1,0.3-3.1,0.5C9,5,7.6,5.1,6.3,5.4c-1.6,0.3-3.2,0.7-4.8,1C1.6,6.6,1.7,6.6,1.7,6.6z"/>
</g>
</svg>
