<?xml version="1.0" encoding="utf-8"?>
<!-- Generator: Adobe Illustrator 19.1.0, SVG Export Plug-In . SVG Version: 6.00 Build 0)  -->
<!DOCTYPE svg PUBLIC "-//W3C//DTD SVG 1.1//EN" "http://www.w3.org/Graphics/SVG/1.1/DTD/svg11.dtd">
<svg version="1.1" id="Layer_1" xmlns="http://www.w3.org/2000/svg" xmlns:xlink="http://www.w3.org/1999/xlink" x="0px" y="0px"
	 viewBox="0 0 128 128" style="enable-background:new 0 0 128 128;" xml:space="preserve">
<style type="text/css">
	.st0{opacity:0.6;fill:#D1D1D1;}
	.st1{fill:#FFFFFF;stroke:#D3D3D3;stroke-miterlimit:10;}
	.st2{fill:#337FB1;}
	.st3{fill:#4B9341;}
	.st4{fill:#BD1C21;}
</style>
<path class="st0" d="M120.7,127.6H13.1c-4,0-7.3-3.2-7.3-7.3V12.7c0-4,3.2-7.3,7.3-7.3h107.7c4,0,7.3,3.2,7.3,7.3v107.7
	C128,124.3,124.8,127.6,120.7,127.6z"/>
<path class="st1" d="M117.3,123.3H7.4c-3.4,0-6.1-2.7-6.1-6.1V7.2c0-3.4,2.7-6.1,6.1-6.1h109.9c3.4,0,6.1,2.7,6.1,6.1v109.9
	C123.5,120.5,120.7,123.3,117.3,123.3z"/>
<g>
	<path class="st2" d="M59.5,74c3.8-0.6,7.6-1,11.4-1.5c0.4-0.1,0.7-0.2,0.9-0.6c0.6-0.9,1.2-1.8,1.8-2.7c0.2-0.4,0.3-0.7,0.3-1.2
		c-0.3-3.5-0.6-7-1-10.4c-0.2-1.9-0.3-3.8-0.6-5.6c-0.8-5-1.6-9.9-2.4-14.9c-0.3-2.1-0.7-4.2-1.1-6.3c-0.4,0.1-0.5,0.4-0.7,0.7
		c-2.3,2.9-4.6,5.8-6.9,8.6c-1.4,1.7-2.6,3.5-4.2,5.1c-1.6,1.5-3.2,3-4.8,4.5c-0.1,0.1-0.3,0.2-0.3,0.6c2.9,2.7,5.5,5.8,8.6,8.3
		c3.2,2.5,6.5,4.8,9.7,7.2c-0.3,0.5-0.6,1-1.1,1.4c-2.3-1.3-4.5-2.6-6.8-3.8c-0.3-0.2-0.5-0.4-0.8-0.7c-3.1-3-6.1-5.9-9.2-8.9
		c-0.8-0.7-1.6-1.5-2.4-2.2c-2.2,2.8-4.4,5.5-6.5,8.2c-3.2-1.7-6.3-3.4-9.5-5.1c-0.3,0.7-0.6,1.3-0.9,1.9c-0.9,1.8-1.6,3.7-2.8,5.4
		c-1.9,2.5-3.8,5.1-5.6,7.7c-1.3,1.8-2.7,3.7-4,5.5c-0.7-0.5-1.3-0.9-2-1.3c2-2.8,4-5.4,5.9-8.1c1.9-2.7,4.1-5.3,5.6-8.2
		c0.8-1.6,1.7-3.1,2.6-4.7c-1.8-0.8-3.5-1.6-5.1-2.4c-1.7-0.8-3.6-1.5-5.2-2.6c-2.1-1.4-4.2-2.9-6.3-4.4c-1.6-1.1-3.3-2.3-4.9-3.4
		c-0.2,0.3-0.1,0.5-0.1,0.7c0.3,3.4,0.5,6.8,0.8,10.1c0.2,2.7,0.5,5.4,0.9,8c0.8,4.7,1.6,9.4,2.4,14.1c0.3,1.6,0.6,3.3,0.9,4.9
		c2.6,0.3,5.1,0.3,7.6,0.4c3.8,0.2,7.5,0.3,11.3,0.5c0.6,0,1.1,0.1,1.7,0c5-1.1,10-2.1,15.1-3.1C54.4,75,56.9,74.4,59.5,74z"/>
	<path class="st3" d="M108.9,30.7c-12,1.7-23.7,4.6-35.5,6.7c1.6,9.1,3.3,18.1,5.4,27c0.4,0.1,0.7,0,1-0.1c3.2-0.7,6.4-1.5,9.6-2.2
		c5.8-1.1,11.6-1.9,17.4-3.2c2.3-0.5,4.7-1.1,7.2-1.6C111.7,48.5,110.5,39.5,108.9,30.7z M98.7,50c-5.2,1.3-10.6,1.7-15.9,3.2
		c-0.1-0.5,0-1,0-1.5c5.1-1.3,10.4-2,15.6-3.3C98.8,49,98.8,49.4,98.7,50z M81,47.2c5.6-1.1,11.1-2.1,16.7-3
		c0.3,0.5,0.1,1.1,0.4,1.6c-5.6,1.3-11.1,1.8-16.7,3C81.3,48.2,81.2,47.7,81,47.2z M83.3,57.4c-0.3-0.6-0.3-1.2-0.5-1.9
		c5.5-1.4,11.1-2,16.6-2.8c0.1,0.2,0.1,0.3,0.2,0.4c0.1,0.4,0.1,0.8,0.1,1.4C94.1,55.4,88.7,56.5,83.3,57.4z M102.8,39
		c-0.6-1.6-0.9-3.2-0.9-4.9c1.6-0.2,3.2-0.5,4.7-0.9l0.8,5C105.9,38.5,104.4,38.8,102.8,39z"/>
	<path class="st2" d="M11.6,37.3c3.3,2.2,6.6,4.3,9.9,6.5c1.5,1,2.9,1.9,4.5,2.6c2.6,1.1,5.2,2.3,7.7,3.5c0.5,0.2,0.9,0.5,1.4,0.8
		c2.3,1.6,4.6,3.2,6.9,4.7c0.3,0.2,0.5,0.4,0.9,0.5c0.2-0.2,0.4-0.5,0.6-0.7c2.9-3.9,6.4-7.4,10-10.7c1.2-1.1,2.4-2.2,3.4-3.4
		c3.6-4.2,7.2-8.5,10.8-12.7c0.2-0.2,0.5-0.4,0.4-0.8c-0.9,0.1-1.7,0.2-2.5,0.3c-3.6,0.5-7.2,0.9-10.8,1.4c-3,0.4-5.9,0.8-8.9,1.2
		c-3.1,0.4-6.1,0.9-9.2,1.3c-3.9,0.6-7.8,1.1-11.7,1.8c-4.7,0.9-9.3,2-14,3C11.1,37,11.4,37.1,11.6,37.3z"/>
	<path class="st4" d="M82.4,96.6c-0.2,0.4-0.5,0.5-0.9,0.7c-0.7-0.8-1.3-1.5-1.9-2.2c-1.1-1.1-1.9-2.5-2.6-3.9
		c-1.2-2.5-2.5-4.9-3.8-7.4c-1.9,1.2-3.8,2.4-5.6,3.6c-1.6-1.7-3.1-3.4-4.8-5.2c-2,2.6-4.6,4.3-7.2,6.1c-1.2,0.8-2.5,1.7-3.7,2.6
		c-0.5,0.3-0.9,0.6-1.4,1c-0.2-0.2-0.4-0.4-0.5-0.6c-0.1-0.2-0.3-0.3-0.4-0.6c4.2-3.2,9-5.8,12.5-9.5c-1.5-1.6-2.9-3.2-4.3-4.7
		c-0.2-0.2-0.4-0.3-0.6-0.2c-2.5,0.6-5,1.2-7.5,1.9c-0.8,4.8-1.6,9.7-2.4,14.5c0.4,0.2,0.7,0.3,1,0.4c3.1,1.2,6.2,2.4,9.2,3.7
		c1.3,0.5,2.6,0.8,4,1c4,0.5,7.9,1,11.8,1.6c2.5,0.4,5,1,7.5,1.5c0.3,0.1,0.7,0.2,0.9,0.1c0.9-0.7,2.1-1.2,2.5-2.5
		c1.2-5.1,2.5-10.2,3.3-15.5c0.4-2.5,0.8-5,1.3-7.7c-4.8,2.8-9.1,6.2-14.3,8.1C76.5,88.2,79.4,92.5,82.4,96.6z"/>
	<path class="st4" d="M74.7,70.9c-0.5,0.8-1.1,1.6-1.5,2.4C72.9,73.8,72.6,74,72,74c-2.8,0.3-5.6,0.6-8.3,0.9
		C62.4,75,61,75,59.5,75.7c3.4,2.7,6,5.9,8.4,9.4c2.5-1.6,4.8-3,7.4-4.1c1.8-0.7,3.6-1.6,5.3-2.6c2.6-1.6,5.2-3.1,7.8-4.6
		c0.3-0.2,0.6-0.2,0.8-0.6c-4.5-0.9-8.9-1.8-13.3-2.7C75.3,70.3,75,70.5,74.7,70.9z"/>
</g>
</svg>
