<?xml version="1.0" encoding="utf-8"?>
<!-- Generator: Adobe Illustrator 19.1.0, SVG Export Plug-In . SVG Version: 6.00 Build 0)  -->
<!DOCTYPE svg PUBLIC "-//W3C//DTD SVG 1.1//EN" "http://www.w3.org/Graphics/SVG/1.1/DTD/svg11.dtd">
<svg version="1.1" id="Layer_1" xmlns="http://www.w3.org/2000/svg" xmlns:xlink="http://www.w3.org/1999/xlink" x="0px" y="0px"
	 viewBox="0 0 300 300" style="enable-background:new 0 0 300 300;" xml:space="preserve">
<style type="text/css">
	.st0{fill:#337FB1;}
	.st1{fill:#4B9341;}
	.st2{fill:#BD1C21;}
</style>
<g>
	<path class="st0" d="M144.2,175.3c10-1.5,20-2.7,30.1-4c1.1-0.1,1.8-0.6,2.4-1.6c1.5-2.4,3.1-4.8,4.7-7.2c0.7-1,0.8-1.9,0.7-3.1
		c-0.9-9.2-1.7-18.3-2.5-27.5c-0.5-4.9-0.8-9.9-1.5-14.8c-2-13.1-4.1-26.1-6.2-39.2c-0.9-5.5-1.8-11-2.8-16.6
		c-1,0.4-1.4,1.2-1.9,1.8c-6,7.5-12,15.2-18.1,22.7c-3.7,4.5-6.9,9.3-11.1,13.4c-4.2,4-8.4,8-12.7,11.9c-0.4,0.4-0.9,0.7-0.8,1.6
		c7.6,7.1,14.4,15.3,22.7,21.9c8.3,6.6,17.1,12.7,25.6,19c-0.9,1.4-1.5,2.5-2.8,3.6c-6-3.4-11.9-6.8-17.9-10.1
		c-0.8-0.5-1.4-1.2-2.1-1.8c-8.1-7.8-16.1-15.7-24.2-23.5c-2-2-4.1-3.9-6.2-5.8c-5.8,7.3-11.5,14.4-17.2,21.5
		c-8.5-4.6-16.7-9-25.1-13.5c-0.9,1.9-1.6,3.4-2.3,5c-2.4,4.7-4.2,9.8-7.4,14.1c-5,6.7-9.9,13.5-14.8,20.3c-3.5,4.8-7,9.6-10.6,14.5
		c-1.9-1.2-3.5-2.3-5.3-3.5c5.2-7.2,10.4-14.3,15.5-21.4c5-7.1,10.7-13.8,14.8-21.6c2.2-4.1,4.5-8.2,6.8-12.4
		c-4.6-2.2-9.1-4.2-13.5-6.3c-4.5-2.2-9.4-3.9-13.6-6.7c-5.6-3.8-11-7.7-16.5-11.6c-4.3-3-8.6-6-12.9-9c-0.5,0.7-0.3,1.2-0.2,1.7
		c0.7,8.9,1.4,17.8,2,26.7c0.5,7.1,1.3,14.1,2.5,21.1c2.2,12.4,4.3,24.8,6.4,37.2c0.7,4.3,1.5,8.6,2.3,13c6.8,0.7,13.4,0.7,20,1.1
		c9.9,0.6,19.9,0.9,29.8,1.3c1.5,0.1,2.9,0.3,4.4,0c13.2-2.8,26.5-5.5,39.7-8.2C130.8,178,137.4,176.4,144.2,175.3z"/>
	<path class="st1" d="M274.2,61.2c-31.6,4.6-62.3,12.2-93.5,17.6c4.2,23.9,8.7,47.6,14.2,71c1.1,0.2,1.9-0.1,2.7-0.3
		c8.4-1.9,16.8-4.1,25.3-5.7c15.3-3,30.7-5.1,45.8-8.4c6.2-1.3,12.3-2.8,19-4.3C281.6,108.1,278.5,84.6,274.2,61.2z M247.4,112
		c-13.8,3.4-28,4.6-41.8,8.4c-0.3-1.4-0.1-2.6,0.1-4c13.6-3.5,27.5-5.3,41.2-8.6C247.6,109.4,247.5,110.6,247.4,112z M200.9,104.6
		c14.7-2.8,29.3-5.6,43.9-7.9c0.7,1.4,0.2,2.9,1.2,4.3c-14.6,3.5-29.3,4.9-43.9,7.9C201.7,107.4,201.3,106.2,200.9,104.6z
		 M206.7,131.7c-0.9-1.6-0.7-3.2-1.4-4.9c14.6-3.7,29.2-5.2,43.8-7.4c0.2,0.5,0.4,0.8,0.4,1.2c0.1,1.1,0.2,2.2,0.3,3.6
		C235.4,126.3,221.1,129.2,206.7,131.7z M258.2,83c-1.6-4.2-2.4-8.3-2.4-12.9c4.2-0.6,8.3-1.2,12.5-2.3l2.1,13.3
		C266.3,81.9,262.3,82.5,258.2,83z"/>
	<path class="st0" d="M18,78.5c8.7,5.7,17.4,11.4,26,17.2c3.8,2.5,7.6,5.1,11.9,6.9c6.8,2.9,13.6,6.1,20.4,9.1
		c1.3,0.6,2.5,1.2,3.6,2c6.1,4.2,12.1,8.3,18.2,12.5c0.7,0.5,1.4,1.2,2.4,1.4c0.6-0.6,1.1-1.2,1.6-1.9c7.7-10.4,16.8-19.5,26.4-28.2
		c3.1-2.8,6.2-5.7,9-9c9.5-11.1,19-22.3,28.5-33.4c0.5-0.6,1.3-1,1.1-2.1c-2.2,0.3-4.4,0.5-6.6,0.8c-9.5,1.2-19,2.5-28.4,3.7
		c-7.8,1-15.7,2.1-23.5,3.1c-8.1,1-16.2,2.3-24.3,3.5C74,65.7,63.7,67,53.5,68.9c-12.3,2.4-24.6,5.3-37,8C16.8,78,17.5,78.2,18,78.5
		z"/>
	<path class="st2" d="M204.5,234.9c-0.6,1-1.4,1.3-2.3,1.9c-1.8-2-3.4-3.9-5.1-5.7c-3-3-5.1-6.5-6.9-10.2c-3.2-6.5-6.5-13-9.9-19.6
		c-5,3.2-9.9,6.2-14.9,9.4c-4.1-4.5-8.2-8.9-12.5-13.6c-5.2,7-12.1,11.4-18.9,16c-3.3,2.2-6.5,4.5-9.7,6.8c-1.2,0.8-2.4,1.6-3.6,2.5
		c-0.5-0.6-1-1.1-1.3-1.6c-0.3-0.5-0.9-0.9-1-1.6c11.1-8.5,23.6-15.3,32.8-25c-3.8-4.2-7.6-8.3-11.4-12.5c-0.5-0.5-0.9-0.7-1.7-0.5
		c-6.6,1.7-13.2,3.3-19.8,4.9c-2.1,12.8-4.1,25.5-6.2,38.2c0.9,0.4,1.8,0.8,2.6,1.2c8.1,3.2,16.3,6.4,24.3,9.7
		c3.4,1.4,7,2.2,10.6,2.6c10.4,1.3,20.8,2.5,31.2,4.1c6.6,1,13.2,2.6,19.7,3.9c0.8,0.2,1.8,0.7,2.4,0.2c2.5-1.9,5.6-3,6.5-6.7
		c3.2-13.5,6.7-26.9,8.7-40.7c1-6.6,2.2-13.2,3.3-20.2c-12.7,7.3-23.9,16.4-37.5,21.3C188.9,212.7,196.5,224,204.5,234.9z"/>
	<path class="st2" d="M184.3,167.2c-1.3,2.1-2.8,4.1-4.1,6.2c-0.7,1.2-1.6,1.7-3.1,1.9c-7.3,0.7-14.6,1.5-22,2.3
		c-3.5,0.4-7.1,0.3-11,2.1c8.9,7,15.9,15.4,22,24.6c6.5-4.2,12.7-8,19.4-10.8c4.8-2,9.4-4.1,13.8-6.8c6.8-4.1,13.6-8,20.4-12.1
		c0.7-0.4,1.5-0.6,2.1-1.6c-11.8-2.4-23.5-4.8-35.1-7.2C185.7,165.7,184.9,166.1,184.3,167.2z"/>
</g>
</svg>
